<svg width="1152" height="213" viewBox="0 0 1152 213" fill="none" xmlns="http://www.w3.org/2000/svg">
<path d="M-26.1948 159.906L-142 213H1290L1252.64 139.918L1167.97 106.188L1082.05 126.176L989.28 106.188L953.791 66.8358H854.174L793.158 45.5982L706.616 66.8358L569.019 45.5982V0L526.059 45.5982L484.344 66.8358C451.66 110.893 428.673 129.044 386.595 159.906L386.114 159.733C357.279 149.332 340.965 143.448 320.5 139.918C303.986 150.712 290.441 152.116 252.734 139.918C226.334 143.142 209.437 147.734 201.68 126.176L128.835 106.188L54.1217 126.176L9.29391 159.906H-26.1948Z" fill="#3A8FDD"/>
<path d="M-26.1948 159.906L-142 213H1290L1252.64 139.918L1167.97 106.188L1082.05 126.176L989.28 106.188L953.791 66.8358H854.174L793.158 45.5982L706.616 66.8358L569.019 45.5982V0L526.059 45.5982L484.344 66.8358C451.66 110.893 428.673 129.044 386.595 159.906L386.114 159.733C357.279 149.332 340.965 143.448 320.5 139.918C303.986 150.712 290.441 152.116 252.734 139.918C226.334 143.142 209.437 147.734 201.68 126.176L128.835 106.188L54.1217 126.176L9.29391 159.906H-26.1948Z" fill="url(#paint0_linear)"/>
<path d="M-26.1948 159.906L-142 213H1290L1252.64 139.918L1167.97 106.188L1082.05 126.176L989.28 106.188L953.791 66.8358H854.174L793.158 45.5982L706.616 66.8358L569.019 45.5982V0L526.059 45.5982L484.344 66.8358C451.66 110.893 428.673 129.044 386.595 159.906L386.114 159.733C357.279 149.332 340.965 143.448 320.5 139.918C303.986 150.712 290.441 152.116 252.734 139.918C226.334 143.142 209.437 147.734 201.68 126.176L128.835 106.188L54.1217 126.176L9.29391 159.906H-26.1948Z" stroke="#3A8FDD" stroke-opacity="0.13"/>
<defs>
<linearGradient id="paint0_linear" x1="574" y1="0" x2="574" y2="213" gradientUnits="userSpaceOnUse">
<stop offset="0.0989583" stop-color="#8A8989" stop-opacity="0.47"/>
<stop offset="1" stop-color="white" stop-opacity="0"/>
</linearGradient>
</defs>
</svg>
